<svg id="logo" xmlns="http://www.w3.org/2000/svg" viewBox="0 0 1997.86279 289.15582"><title>colored-logo</title><path d="M39.75182,14.61875l54.9471,110.7138,54.67084-110.7138h21.9767l5.50067,178.02517h-18.4083L156.78436,58.57368l-.26709-19.77888L103.49174,143.18833H85.63595L32.612,38.7948,30.68886,192.64392H12.28209l6.044-178.02517Z" transform="translate(-4.5902 -14.61875)" fill="#2d637e"/><path d="M257.289,44.28784h20.60611l50.14085,148.35608H311.78124l-15.34508-46.02H238.74789l-15.33744,46.02H207.14808Zm-14.42016,89.51854h49.67843l-24.2661-76.9238h-.6853Z" transform="translate(-4.5902 -14.61875)" fill="#2d637e"/><path d="M396.25543,134.72366l-13.73486-.232H371.98933v58.15225H356.65341V44.28784h43.49247a119.49808,119.49808,0,0,1,20.49318,1.48963,51.906,51.906,0,0,1,16.14331,5.83491q15.55875,9.16676,15.56028,37.32331,0,21.06018-8.35478,31.13582-8.36088,10.07106-23.6907,13.04957l38.4619,55.408-11.90945,8.00527-43.5001-61.81072Zm-9.15912-13.28156,17.401.232q18.54642,0,25.18186-5.84255,6.64155-5.83567,6.64078-25.98009,0-20.14451-8.35478-25.87479-8.36088-5.712-30.56194-5.72349H371.98933V121.4421Z" transform="translate(-4.5902 -14.61875)" fill="#2d637e"/><path d="M483.47847,175.47343a106.92391,106.92391,0,0,0,38.001,6.64689q20.378,0,28.848-6.08064,8.46156-6.06,8.47379-22.54447a19.9744,19.9744,0,0,0-5.50067-14.42022,44.59961,44.59961,0,0,0-9.61394-7.33365l-8.24184-4.11334q-3.88962-1.83373-9.50253-4.35133-5.61132-2.51613-9.72537-4.46433-4.12314-1.946-11.22263-5.72349a55.83081,55.83081,0,0,1-10.06877-6.4088c-1.98873-1.75978-4.20334-3.9286-6.63926-6.52936Q481.869,93.065,481.87589,81.84q0-19.0042,13.04958-29.65376,13.045-10.64112,33.65568-10.64112a123.15122,123.15122,0,0,1,38.23143,5.72349l-2.97316,11.447q-14.208-4.58338-32.627-4.58338-18.43423,0-25.98772,5.84254-7.55731,5.83569-7.55655,20.03224,0,10.53124,10.76171,17.39333,8.69742,5.50143,26.79207,13.40061,18.07479,7.89156,24.495,12.24371,16.24327,10.9891,16.47756,29.76523,0,41.90973-54.25417,41.88989a131.68787,131.68787,0,0,1-42.35235-6.63168Z" transform="translate(-4.5902 -14.61875)" fill="#2d637e"/><path d="M693.18434,44.28784h15.11309V192.64392H693.18434v-70.515H622.21455v70.515h-15.107V44.28784h15.107v65.022h70.96979Z" transform="translate(-4.5902 -14.61875)" fill="#2d637e"/><path d="M787.04816,44.28784h20.60612l50.13941,148.35608H841.54043l-15.34508-46.02H768.50556l-15.3374,46.02H736.90728Zm-14.42168,89.51854H822.3049l-24.26452-76.9238H797.355Z" transform="translate(-4.5902 -14.61875)" fill="#2d637e"/><path d="M886.63548,192.40583h-.22431V44.28784H901.5181l-.232,135.537h65.93926v12.8191H886.63548Z" transform="translate(-4.5902 -14.61875)" fill="#2d637e"/><path d="M993.54887,192.40583h-.22436V44.28784h15.11309l-.2381,135.537h65.93926v12.8191H993.54887Z" transform="translate(-4.5902 -14.61875)" fill="#2d637e"/><path d="M1198.62558,123.13473l-16.48514-.26868h-12.6238v69.77787h-18.40829V14.61875h52.19676a143.13107,143.13107,0,0,1,24.59278,1.78879A61.77136,61.77136,0,0,1,1247.26,23.4131q18.66785,10.98911,18.67539,44.7821,0,25.275-10.0153,37.35847-10.0391,12.09481-28.439,15.658l46.14512,66.48414-14.27822,9.62769-52.19676-74.18873Zm-10.9708-15.93422,20.86711.27626q22.269,0,30.22775-7.00556,7.95786-7.00785,7.95942-31.18161,0-24.1669-10.01689-31.04578-10.05961-6.86361-36.696-6.86361h-30.47953v75.8203Z" transform="translate(-4.5902 -14.61875)" fill="#2d637e"/><path d="M1390.526,192.64392h-84.24224V44.28784h81.7239l-1.59495,12.82521h-64.7915v52.4287h57.235v12.81763h-57.47452v57.46544H1390.526Z" transform="translate(-4.5902 -14.61875)" fill="#2d637e"/><path d="M1422.34867,44.28784h39.15483A165.21494,165.21494,0,0,1,1484.86,45.66605a63.15035,63.15035,0,0,1,18.541,5.83492,36.18344,36.18344,0,0,1,14.42779,12.2528q11.67135,17.1705,11.65609,53.56741,0,22.43612-5.93259,39.834-4.13466,11.91633-15.79831,22.43153c-4.29346,3.9805-11.29749,7.42223-21.07628,10.3145a71.87442,71.87442,0,0,1-17.49863,2.50461q-9.29954.245-16.37989.23809h-30.45053Zm15.11309,135.07605h21.28384c3.22042,0,6.0821-.04579,8.58518-.10532,2.53513-.08858,5.84407-.26862,9.95736-.5815a33.3893,33.3893,0,0,0,9.06144-1.59495q2.86174-1.16073,7.42382-3.2189a15.07374,15.07374,0,0,0,6.64682-5.142c1.37212-2.065,3.01132-4.61237,4.91916-7.668a33.95517,33.95517,0,0,0,4.23233-10.76165,196.5884,196.5884,0,0,0,3.44326-34.573q.22436-17.85052-2.17646-29.41419-2.39243-11.55918-9.04617-17.86342a32.264,32.264,0,0,0-15.56181-8.24342q-8.9424-1.93216-24.50267-1.9444h-24.2661Z" transform="translate(-4.5902 -14.61875)" fill="#2d637e"/><path d="M1564.7508,44.28784h39.13956a165.21333,165.21333,0,0,1,23.35645,1.37821,63.00912,63.00912,0,0,1,18.54107,5.83492,36.1833,36.1833,0,0,1,14.42779,12.2528q11.67147,17.1705,11.67136,53.56741,0,22.43612-5.94786,39.834-4.13466,11.91633-15.79838,22.43153-6.41718,5.97075-21.06094,10.3145a71.90221,71.90221,0,0,1-17.5139,2.50461q-9.27665.245-16.37988.23809H1564.7508Zm15.11308,135.07605h21.28378c3.20516,0,6.06691-.04579,8.58525-.10532,2.51986-.08858,5.84254-.26862,9.95742-.5815a33.37392,33.37392,0,0,0,9.04611-1.59495q2.86175-1.16073,7.43757-3.2189a15.15856,15.15856,0,0,0,6.64834-5.142c1.37058-2.065,3.01132-4.61237,4.91915-7.668a34.31778,34.31778,0,0,0,4.23234-10.76165,196.74047,196.74047,0,0,0,3.428-34.573q.22437-17.85052-2.17645-29.41419-2.39243-11.55918-9.03245-17.86342a32.36886,32.36886,0,0,0-15.57554-8.24342q-8.9195-1.93216-24.48893-1.9444h-24.26458Z" transform="translate(-4.5902 -14.61875)" fill="#2d637e"/><path d="M1707.1514,44.28784H1722.266V192.64392H1707.1514Z" transform="translate(-4.5902 -14.61875)" fill="#2d637e"/><path d="M1789.56212,49.44509a65.09577,65.09577,0,0,1,17.85579-6.418,125.01751,125.01751,0,0,1,21.299-1.48194q13.05645,0,32.04548,6.17832l-3.66609,12.13229q-20.61375-4.114-30.55584-4.12092a120.70015,120.70015,0,0,0-17.05144,1.03481,48.841,48.841,0,0,0-14.54684,4.68869,29.2447,29.2447,0,0,0-11.7904,10.30687q-9.85817,15.11223-9.852,46.24127,0,38.2444,13.7425,51.29627a38.59316,38.59316,0,0,0,13.74249,8.58519,48.81374,48.81374,0,0,0,15.67933,2.38408q8.58525,0,12.70006-.44719,13.2808-.91576,26.33724-8.7043l5.261,12.37191q-16.4768,11.22264-43.04527,11.20737a110.82531,110.82531,0,0,1-17.85579-1.25153,53.32074,53.32074,0,0,1-16.02274-5.7235,37.42222,37.42222,0,0,1-13.8478-12.48943q-5.387-8.006-9.04618-22.42543-3.66762-14.43237-3.65236-33.99757,0-19.57435,4.56049-33.9991,4.58337-14.4187,11.3432-22.43916A52.34428,52.34428,0,0,1,1789.56212,49.44509Z" transform="translate(-4.5902 -14.61875)" fill="#2d637e"/><path d="M1905.86518,192.64392h-15.11469V44.28784h15.35271v76.00651l16.24565-18.99591q16.25473-19.00429,32.285-38.00707l16.24558-19.00353h16.72329l-59.53039,70.283,68.44378,78.07307h-18.98827l-58.60708-67.31137-13.0556,15.345Z" transform="translate(-4.5902 -14.61875)" fill="#2d637e"/><g id="Rectangle_1" data-name="Rectangle 1"><rect x="449.10681" y="224.69165" width="4.36469" height="64.46417" fill="#2d637e"/></g><path d="M12.40661,275.17381v19.2417H4.5902V246.24559H18.097q9.25488,0,13.70312,3.49267,4.44727,3.49293,4.44776,10.54346,0,8.99413-9.28809,12.81641l13.50684,21.31738H31.57116l-11.44678-19.2417Zm0-6.52344h5.42871q5.46093,0,7.91455-2.043a7.439,7.439,0,0,0,2.45264-6.0625q0-4.08471-2.64893-5.86474-2.64916-1.77906-7.98-1.77881h-5.167Z" transform="translate(-4.5902 -14.61875)" fill="#2d637e"/><path d="M76.121,294.41551H49.07458V246.24559H76.121v6.65576H56.891v13.11328H74.91051V272.604H56.891V287.727h19.23Z" transform="translate(-4.5902 -14.61875)" fill="#2d637e"/><path d="M117.79235,294.41551l-4.7749-13.37695H94.73571L90.059,294.41551H81.81774L99.7069,246.04783h8.50293L126.099,294.41551Zm-6.83545-20.16406-4.48047-13.11329q-.49-1.31762-1.35693-4.15136-.86719-2.83374-1.19385-4.15137a74.26694,74.26694,0,0,1-2.5835,8.86279l-4.31689,12.55323Z" transform="translate(-4.5902 -14.61875)" fill="#2d637e"/><path d="M134.08532,294.41551V246.24559h7.8164v41.41552h20.24366v6.7544Z" transform="translate(-4.5902 -14.61875)" fill="#2d637e"/><path d="M218.181,294.41551H191.13463V246.24559H218.181v6.65576h-19.23v13.11328h18.01953V272.604H198.951V287.727h19.23Z" transform="translate(-4.5902 -14.61875)" fill="#2d637e"/><path d="M257.75915,281.33543a12.15962,12.15962,0,0,1-4.61133,10.082q-4.61133,3.657-12.72168,3.65723-8.11085,0-13.27783-2.53711v-7.44629a35.848,35.848,0,0,0,6.9497,2.438,29.24712,29.24712,0,0,0,6.85157.88965q4.64282,0,6.85107-1.7793a5.81818,5.81818,0,0,0,2.20752-4.77734,6.00748,6.00748,0,0,0-2.02734-4.57959q-2.02809-1.87794-8.37256-4.44825-6.54126-2.66822-9.22217-6.09521a12.958,12.958,0,0,1-2.68213-8.23682,11.57127,11.57127,0,0,1,4.25195-9.48926q4.251-3.45923,11.41358-3.45947a33.332,33.332,0,0,1,13.67041,3.03125l-2.48584,6.42481a29.68832,29.68832,0,0,0-11.38086-2.70166,8.68987,8.68987,0,0,0-5.75586,1.66406,5.48229,5.48229,0,0,0-1.9624,4.39844,6.22764,6.22764,0,0,0,.78515,3.2124,8.04309,8.04309,0,0,0,2.5835,2.52051,43.55154,43.55154,0,0,0,6.47558,3.12988A35.3665,35.3665,0,0,1,253.017,271.352a12.09627,12.09627,0,0,1,3.59765,4.31592A13.06727,13.06727,0,0,1,257.75915,281.33543Z" transform="translate(-4.5902 -14.61875)" fill="#2d637e"/><path d="M285.204,294.41551h-7.81641V253h-14.0625v-6.75439h35.94239V253H285.204Z" transform="translate(-4.5902 -14.61875)" fill="#2d637e"/><path d="M337.93053,294.41551l-4.77441-13.37695H314.87389l-4.67676,13.37695h-8.24121l17.88965-48.36768h8.50293l17.88867,48.36768Zm-6.835-20.16406-4.48047-13.11329q-.49072-1.31762-1.35742-4.15136-.86718-2.83374-1.19336-4.15137a74.27527,74.27527,0,0,1-2.584,8.86279L317.163,274.25145Z" transform="translate(-4.5902 -14.61875)" fill="#2d637e"/><path d="M370.73913,294.41551h-7.81641V253h-14.0625v-6.75439H384.8026V253H370.73913Z" transform="translate(-4.5902 -14.61875)" fill="#2d637e"/><path d="M420.8485,294.41551H393.80163V246.24559H420.8485v6.65576H401.618v13.11328h18.02051V272.604H401.618V287.727H420.8485Z" transform="translate(-4.5902 -14.61875)" fill="#2d637e"/><path d="M521.73424,260.80857q0,7.54542-4.90625,11.565-4.9043,4.02026-13.96386,4.01953h-4.97168v18.02246H490.076V246.24559h13.76855q8.96046,0,13.42579,3.69043Q521.73375,253.626,521.73424,260.80857Zm-23.84179,8.96192h4.15332q6.01758,0,8.83007-2.10889,2.8125-2.10791,2.8125-6.58935,0-4.15137-2.51757-6.19434-2.51953-2.042-7.84961-2.04248h-5.42871Z" transform="translate(-4.5902 -14.61875)" fill="#2d637e"/><path d="M540.77428,275.17381v19.2417h-7.8164V246.24559h13.50683q9.25488,0,13.70313,3.49267,4.44726,3.49293,4.44824,10.54346,0,8.99413-9.28809,12.81641l13.50684,21.31738h-8.89551L548.493,275.17381Zm0-6.52344H546.203q5.4624,0,7.915-2.043a7.43866,7.43866,0,0,0,2.45215-6.0625q0-4.08471-2.64844-5.86474-2.6499-1.77906-7.97949-1.77881h-5.168Z" transform="translate(-4.5902 -14.61875)" fill="#2d637e"/><path d="M619.89245,270.26463q0,11.7627-5.83789,18.28613-5.83741,6.52368-16.53125,6.52393-10.8252,0-16.63086-6.47461-5.80518-6.47388-5.80469-18.40137,0-11.92675,5.83789-18.31885,5.8374-6.39185,16.66309-6.39209,10.66113,0,16.48242,6.49073Q619.89245,258.46995,619.89245,270.26463Zm-36.49805,0q0,8.896,3.56543,13.49219,3.564,4.59594,10.56348,4.59619,6.96533,0,10.51367-4.54688,3.54932-4.54687,3.54883-13.5415,0-8.8623-3.51563-13.44287-3.51562-4.57911-10.48144-4.57959-7.03272,0-10.61329,4.57959Q583.39539,261.40233,583.3944,270.26463Z" transform="translate(-4.5902 -14.61875)" fill="#2d637e"/><path d="M663.494,260.80857q0,7.54542-4.90625,11.565-4.9043,4.02026-13.96387,4.01953h-4.97168v18.02246h-7.8164V246.24559h13.76855q8.96044,0,13.42578,3.69043Q663.49353,253.626,663.494,260.80857Zm-23.8418,8.96192h4.15332q6.01758,0,8.83008-2.10889,2.8125-2.10791,2.8125-6.58935,0-4.15137-2.51758-6.19434-2.51953-2.042-7.84961-2.04248h-5.42871Z" transform="translate(-4.5902 -14.61875)" fill="#2d637e"/><path d="M701.76452,294.41551H674.71764V246.24559h27.04688v6.65576H682.53405v13.11328h18.02051V272.604H682.53405V287.727h19.23047Z" transform="translate(-4.5902 -14.61875)" fill="#2d637e"/><path d="M721.58874,275.17381v19.2417h-7.81641V246.24559h13.50684q9.25488,0,13.70312,3.49267,4.44726,3.49293,4.44824,10.54346,0,8.99413-9.28808,12.81641l13.50683,21.31738h-8.89551l-11.44628-19.2417Zm0-6.52344h5.42871q5.4624,0,7.915-2.043a7.43869,7.43869,0,0,0,2.45214-6.0625q0-4.08471-2.64843-5.86474-2.64991-1.77906-7.9795-1.77881h-5.168Z" transform="translate(-4.5902 -14.61875)" fill="#2d637e"/><path d="M774.77233,294.41551h-7.81641V253h-14.0625v-6.75439h35.94239V253H774.77233Z" transform="translate(-4.5902 -14.61875)" fill="#2d637e"/><path d="M811.34167,268.22215l11.3164-21.97656H831.161l-15.92676,29.48828v18.68164h-7.84961v-18.418l-15.86132-29.752h8.50293Z" transform="translate(-4.5902 -14.61875)" fill="#2d637e"/><path d="M878.88952,294.41551,865.02331,254.186h-.26172q.55664,8.96264.55664,16.80371v23.42578h-7.09766V246.24559h11.02149L882.52038,284.564h.19629l13.66992-38.31836H907.4403v48.16992h-7.52149V270.59422q0-3.59106.17969-9.35742.18018-5.76489.31055-6.98487h-.26172l-14.35645,40.16358Z" transform="translate(-4.5902 -14.61875)" fill="#2d637e"/><path d="M951.369,294.41551l-4.77442-13.37695H928.31237l-4.67676,13.37695H915.3944l17.88965-48.36768H941.787l17.88867,48.36768Zm-6.835-20.16406-4.48047-13.11329q-.49072-1.31762-1.35742-4.15136-.8672-2.83374-1.19336-4.15137a74.27544,74.27544,0,0,1-2.584,8.86279l-4.31738,12.55323Z" transform="translate(-4.5902 -14.61875)" fill="#2d637e"/><path d="M1007.495,294.41551h-9.582l-23.51464-38.38428h-.26172l.16406,2.1416q.457,6.12818.458,11.20215v25.04053H967.661V246.24559h9.48438l23.44921,38.18652h.19629q-.06591-.75732-.26171-5.51855-.19629-4.76074-.19629-7.42969V246.24559h7.16211Z" transform="translate(-4.5902 -14.61875)" fill="#2d637e"/><path d="M1051.45592,294.41551l-4.77441-13.37695h-18.28223l-4.67676,13.37695h-8.24121l17.88965-48.36768h8.50293l17.88867,48.36768Zm-6.835-20.16406-4.48047-13.11329q-.49073-1.31762-1.35742-4.15136-.86718-2.83374-1.19336-4.15137a74.27527,74.27527,0,0,1-2.584,8.86279l-4.31739,12.55323Z" transform="translate(-4.5902 -14.61875)" fill="#2d637e"/><path d="M1087.30651,268.28807h17.59473v24.18359a50.58217,50.58217,0,0,1-8.291,2.00977,58.22642,58.22642,0,0,1-8.584.59326q-10.85889,0-16.74512-6.47461-5.88575-6.47388-5.88672-18.26953,0-11.63013,6.63867-18.20362t18.28223-6.57324a35.3831,35.3831,0,0,1,14.19336,2.89942l-2.74707,6.55664a27.45619,27.45619,0,0,0-11.64258-2.70166q-7.65234,0-12.10059,4.84326-4.44873,4.8435-4.44824,13.24512,0,8.83006,4.00684,13.42626,4.00488,4.596,11.52832,4.5962a37.58022,37.58022,0,0,0,8.11035-.95557V275.042h-9.90918Z" transform="translate(-4.5902 -14.61875)" fill="#2d637e"/><path d="M1145.10143,294.41551h-27.04687V246.24559h27.04687v6.65576H1125.871v13.11328h18.02051V272.604H1125.871V287.727h19.23047Z" transform="translate(-4.5902 -14.61875)" fill="#2d637e"/><path d="M1177.77917,294.41551,1163.913,254.186h-.26171q.55664,8.96264.55664,16.80371v23.42578h-7.09766V246.24559h11.02148L1181.41,284.564h.19629l13.66993-38.31836H1206.33v48.16992h-7.52149V270.59422q0-3.59106.17969-9.35742.18018-5.76489.31055-6.98487h-.26172l-14.35645,40.16358Z" transform="translate(-4.5902 -14.61875)" fill="#2d637e"/><path d="M1247.64245,294.41551h-27.04688V246.24559h27.04688v6.65576H1228.412v13.11328h18.02051V272.604H1228.412V287.727h19.23047Z" transform="translate(-4.5902 -14.61875)" fill="#2d637e"/><path d="M1299.48424,294.41551h-9.582l-23.51465-38.38428h-.26172l.16407,2.1416q.457,6.12818.458,11.20215v25.04053h-7.09766V246.24559h9.48437l23.44922,38.18652h.19629q-.06591-.75732-.26172-5.51855-.19629-4.76074-.19629-7.42969V246.24559h7.16211Z" transform="translate(-4.5902 -14.61875)" fill="#2d637e"/><path d="M1330.29772,294.41551h-7.81641V253h-14.0625v-6.75439h35.94239V253h-14.06348Z" transform="translate(-4.5902 -14.61875)" fill="#2d637e"/><path d="M1442.23815,260.80857q0,7.54542-4.90625,11.565-4.90429,4.02026-13.96387,4.01953h-4.97168v18.02246H1410.58V246.24559h13.76855q8.96044,0,13.42578,3.69043Q1442.23767,253.626,1442.23815,260.80857Zm-23.8418,8.96192h4.15332q6.01758,0,8.83008-2.10889,2.8125-2.10791,2.8125-6.58935,0-4.15137-2.51758-6.19434-2.51952-2.042-7.84961-2.04248h-5.42871Z" transform="translate(-4.5902 -14.61875)" fill="#2d637e"/><path d="M1461.27819,275.17381v19.2417h-7.81641V246.24559h13.50684q9.25488,0,13.70312,3.49267,4.44728,3.49293,4.44825,10.54346,0,8.99413-9.28809,12.81641l13.50684,21.31738h-8.89551l-11.44629-19.2417Zm0-6.52344h5.42871q5.4624,0,7.915-2.043a7.43869,7.43869,0,0,0,2.45215-6.0625q0-4.08471-2.64844-5.86474-2.6499-1.77906-7.97949-1.77881h-5.168Z" transform="translate(-4.5902 -14.61875)" fill="#2d637e"/><path d="M1497.94616,294.41551V246.24559h7.8164v48.16992Z" transform="translate(-4.5902 -14.61875)" fill="#2d637e"/><path d="M1547.30358,246.24559h8.11035l-16.74414,48.16992h-8.24219l-16.67871-48.16992h8.04492l9.97461,29.9497q.78516,2.14234,1.668,5.519.8833,3.37719,1.14551,5.02441.42334-2.50341,1.30762-5.79883.88329-3.29443,1.43945-4.87646Z" transform="translate(-4.5902 -14.61875)" fill="#2d637e"/><path d="M1593.06237,294.41551l-4.77442-13.37695h-18.28222l-4.67676,13.37695h-8.24121l17.88965-48.36768h8.50293l17.88867,48.36768Zm-6.835-20.16406-4.48047-13.11329q-.49073-1.31762-1.35742-4.15136-.86719-2.83374-1.19336-4.15137a74.27544,74.27544,0,0,1-2.584,8.86279l-4.31738,12.55323Z" transform="translate(-4.5902 -14.61875)" fill="#2d637e"/><path d="M1625.871,294.41551h-7.8164V253h-14.0625v-6.75439h35.94238V253H1625.871Z" transform="translate(-4.5902 -14.61875)" fill="#2d637e"/><path d="M1675.98131,294.41551h-27.04687V246.24559h27.04687v6.65576h-19.23047v13.11328h18.02051V272.604h-18.02051V287.727h19.23047Z" transform="translate(-4.5902 -14.61875)" fill="#2d637e"/><path d="M1707.06237,294.41551V246.24559h7.8164v41.41552h20.24415v6.7544Z" transform="translate(-4.5902 -14.61875)" fill="#2d637e"/><path d="M1772.08483,294.41551H1745.038V246.24559h27.04688v6.65576h-19.23047v13.11328h18.02051V272.604h-18.02051V287.727h19.23047Z" transform="translate(-4.5902 -14.61875)" fill="#2d637e"/><path d="M1823.9276,294.41551h-9.582l-23.51465-38.38428h-.26172l.16407,2.1416q.457,6.12818.458,11.20215v25.04053h-7.09765V246.24559h9.48437l23.44922,38.18652h.19629q-.06591-.75732-.26172-5.51855-.19629-4.76074-.19629-7.42969V246.24559h7.16211Z" transform="translate(-4.5902 -14.61875)" fill="#2d637e"/><path d="M1877.1112,269.86912q0,11.92823-6.57325,18.23682-6.57421,6.30981-18.93652,6.30957h-13.376V246.24559h14.78223q11.41407,0,17.75879,6.19433Q1877.11071,258.63476,1877.1112,269.86912Zm-8.24121.26367q0-17.29759-16.0586-17.29736h-6.76953V287.793h5.55957Q1868.87048,287.793,1868.87,270.13279Z" transform="translate(-4.5902 -14.61875)" fill="#2d637e"/><path d="M1889.05456,294.41551V246.24559h7.8164v48.16992Z" transform="translate(-4.5902 -14.61875)" fill="#2d637e"/><path d="M1951.0028,294.41551h-9.582l-23.51465-38.38428h-.26172l.16406,2.1416q.457,6.12818.458,11.20215v25.04053h-7.09766V246.24559h9.48438l23.44922,38.18652h.19629q-.06593-.75732-.26172-5.51855-.19629-4.76074-.19629-7.42969V246.24559h7.16211Z" transform="translate(-4.5902 -14.61875)" fill="#2d637e"/><path d="M1984.85827,268.28807H2002.453v24.18359a50.58207,50.58207,0,0,1-8.291,2.00977,58.22646,58.22646,0,0,1-8.584.59326q-10.85888,0-16.74511-6.47461-5.88575-6.47388-5.88672-18.26953,0-11.63013,6.63867-18.20362t18.28223-6.57324a35.38313,35.38313,0,0,1,14.19336,2.89942l-2.74708,6.55664a27.45612,27.45612,0,0,0-11.64257-2.70166q-7.65235,0-12.10059,4.84326-4.44873,4.8435-4.44824,13.24512,0,8.83006,4.00683,13.42626,4.0049,4.596,11.52832,4.5962a37.58024,37.58024,0,0,0,8.11036-.95557V275.042h-9.90918Z" transform="translate(-4.5902 -14.61875)" fill="#2d637e"/><g id="Rectangle_1_copy" data-name="Rectangle 1 copy"><rect x="1369.99487" y="223.98517" width="4.36084" height="64.77686" fill="#2d637e"/></g></svg>